<?xml version="1.0" encoding="UTF-8" standalone="no"?>
<!DOCTYPE svg PUBLIC "-//W3C//DTD SVG 1.1//EN"
 "http://www.w3.org/Graphics/SVG/1.1/DTD/svg11.dtd">
<!-- Generated by graphviz version 2.40.1 (20161225.0304)
 -->
<!-- Title: %3 Pages: 1 -->
<svg width="649pt" height="175pt"
 viewBox="0.00 0.00 648.56 175.00" xmlns="http://www.w3.org/2000/svg" xmlns:xlink="http://www.w3.org/1999/xlink">
<g id="graph0" class="graph" transform="scale(1 1) rotate(0) translate(4 171)">
<title>%3</title>
<polygon fill="#ffffff" stroke="transparent" points="-4,4 -4,-171 644.5617,-171 644.5617,4 -4,4"/>
<!-- contacts -->
<g id="node1" class="node">
<title>contacts</title>
<polygon fill="#c8e6c9" stroke="#000000" points="76.1969,-167 14.4584,-167 14.4584,-131 76.1969,-131 76.1969,-167"/>
<text text-anchor="middle" x="45.3276" y="-144.8" font-family="Times,serif" font-size="14.00" fill="#000000">contacts</text>
</g>
<!-- processor -->
<g id="node2" class="node">
<title>processor</title>
<ellipse fill="none" stroke="#000000" cx="170.6505" cy="-122" rx="43.9905" ry="18"/>
<text text-anchor="middle" x="170.6505" y="-117.8" font-family="Times,serif" font-size="14.00" fill="#000000">processor</text>
</g>
<!-- contacts&#45;&gt;processor -->
<g id="edge1" class="edge">
<title>contacts&#45;&gt;processor</title>
<path fill="none" stroke="#000000" d="M76.3063,-142.3258C89.982,-139.3795 106.3899,-135.8445 121.6593,-132.5548"/>
<polygon fill="#000000" stroke="#000000" points="122.4504,-135.9648 131.489,-130.4371 120.9761,-129.1218 122.4504,-135.9648"/>
</g>
<!-- decisions -->
<g id="node5" class="node">
<title>decisions</title>
<polygon fill="none" stroke="#000000" points="318.8011,-117 250.594,-117 250.594,-81 318.8011,-81 318.8011,-117"/>
<text text-anchor="middle" x="284.6975" y="-94.8" font-family="Times,serif" font-size="14.00" fill="#000000">decisions</text>
</g>
<!-- processor&#45;&gt;decisions -->
<g id="edge4" class="edge">
<title>processor&#45;&gt;decisions</title>
<path fill="none" stroke="#000000" d="M210.2186,-114.0203C219.9593,-112.0558 230.4521,-109.9398 240.4003,-107.9335"/>
<polygon fill="#000000" stroke="#000000" points="241.4052,-111.3014 250.5159,-105.8935 240.0213,-104.4395 241.4052,-111.3014"/>
</g>
<!-- status -->
<g id="node3" class="node">
<title>status</title>
<polygon fill="none" stroke="#000000" points="597.7807,-120 555.2175,-102 597.7807,-84 640.3438,-102 597.7807,-120"/>
<text text-anchor="middle" x="597.7807" y="-97.8" font-family="Times,serif" font-size="14.00" fill="#000000">status</text>
</g>
<!-- status&#45;&gt;processor -->
<g id="edge2" class="edge">
<title>status&#45;&gt;processor</title>
<path fill="none" stroke="#000000" stroke-dasharray="5,2" d="M574.1329,-110.0196C558.5596,-115.1731 537.6724,-121.8434 518.9996,-127 447.7572,-146.674 428.4014,-159.1577 354.7493,-153 308.5455,-149.1371 256.4938,-139.9116 219.5567,-132.5229"/>
<polygon fill="#000000" stroke="#000000" points="220.0531,-129.0523 209.5568,-130.4935 218.6609,-135.9125 220.0531,-129.0523"/>
</g>
<!-- configuration -->
<g id="node4" class="node">
<title>configuration</title>
<polygon fill="none" stroke="#000000" points="90.4836,-113 .1717,-113 .1717,-77 90.4836,-77 90.4836,-113"/>
<text text-anchor="middle" x="45.3276" y="-90.8" font-family="Times,serif" font-size="14.00" fill="#000000">configuration</text>
</g>
<!-- configuration&#45;&gt;processor -->
<g id="edge3" class="edge">
<title>configuration&#45;&gt;processor</title>
<path fill="none" stroke="#000000" d="M90.5721,-104.7476C100.6682,-106.9228 111.4195,-109.2391 121.659,-111.4451"/>
<polygon fill="#000000" stroke="#000000" points="121.1717,-114.9203 131.6846,-113.605 122.646,-108.0774 121.1717,-114.9203"/>
</g>
<!-- sms -->
<g id="node6" class="node">
<title>sms</title>
<polygon fill="none" stroke="#000000" points="396.7493,-138 354.7493,-138 354.7493,-114 396.7493,-114 408.7493,-126 396.7493,-138"/>
<text text-anchor="middle" x="381.7493" y="-121.8" font-family="Times,serif" font-size="14.00" fill="#000000">sms</text>
</g>
<!-- decisions&#45;&gt;sms -->
<g id="edge5" class="edge">
<title>decisions&#45;&gt;sms</title>
<path fill="none" stroke="#000000" d="M318.9144,-108.5192C327.3085,-110.8545 336.33,-113.3643 344.8443,-115.733"/>
<polygon fill="#000000" stroke="#000000" points="343.9663,-119.1215 354.5385,-118.4299 345.8425,-112.3776 343.9663,-119.1215"/>
</g>
<!-- text -->
<g id="node7" class="node">
<title>text</title>
<polygon fill="none" stroke="#000000" points="396.7493,-84 354.7493,-84 354.7493,-60 396.7493,-60 408.7493,-72 396.7493,-84"/>
<text text-anchor="middle" x="381.7493" y="-67.8" font-family="Times,serif" font-size="14.00" fill="#000000">text</text>
</g>
<!-- decisions&#45;&gt;text -->
<g id="edge6" class="edge">
<title>decisions&#45;&gt;text</title>
<path fill="none" stroke="#000000" d="M318.9144,-89.4808C327.3085,-87.1455 336.33,-84.6357 344.8443,-82.267"/>
<polygon fill="#000000" stroke="#000000" points="345.8425,-85.6224 354.5385,-79.5701 343.9663,-78.8785 345.8425,-85.6224"/>
</g>
<!-- email -->
<g id="node8" class="node">
<title>email</title>
<polygon fill="none" stroke="#000000" points="396.7493,-30 354.7493,-30 354.7493,-6 396.7493,-6 408.7493,-18 396.7493,-30"/>
<text text-anchor="middle" x="381.7493" y="-13.8" font-family="Times,serif" font-size="14.00" fill="#000000">email</text>
</g>
<!-- decisions&#45;&gt;email -->
<g id="edge7" class="edge">
<title>decisions&#45;&gt;email</title>
<path fill="none" stroke="#000000" d="M306.7201,-80.6198C320.2158,-69.3562 337.6569,-54.7998 352.3263,-42.5566"/>
<polygon fill="#000000" stroke="#000000" points="354.7135,-45.1231 360.1482,-36.0284 350.2281,-39.7489 354.7135,-45.1231"/>
</g>
<!-- twilio -->
<g id="node9" class="node">
<title>twilio</title>
<ellipse fill="none" stroke="#000000" cx="481.8745" cy="-100" rx="30.988" ry="18"/>
<text text-anchor="middle" x="481.8745" y="-95.8" font-family="Times,serif" font-size="14.00" fill="#000000">twilio</text>
</g>
<!-- sms&#45;&gt;twilio -->
<g id="edge8" class="edge">
<title>sms&#45;&gt;twilio</title>
<path fill="none" stroke="#000000" d="M408.8446,-118.964C419.5951,-116.1724 432.1496,-112.9123 443.787,-109.8904"/>
<polygon fill="#000000" stroke="#000000" points="444.91,-113.2149 453.7092,-107.3138 443.1505,-106.4396 444.91,-113.2149"/>
</g>
<!-- text&#45;&gt;twilio -->
<g id="edge9" class="edge">
<title>text&#45;&gt;twilio</title>
<path fill="none" stroke="#000000" d="M408.8446,-79.5772C419.6847,-82.6086 432.359,-86.153 444.0777,-89.4301"/>
<polygon fill="#000000" stroke="#000000" points="443.4867,-92.8991 454.0599,-92.2217 445.372,-86.1577 443.4867,-92.8991"/>
</g>
<!-- ses -->
<g id="node10" class="node">
<title>ses</title>
<ellipse fill="none" stroke="#000000" cx="481.8745" cy="-44" rx="37.2507" ry="18"/>
<text text-anchor="middle" x="481.8745" y="-39.8" font-family="Times,serif" font-size="14.00" fill="#000000">aws/ses</text>
</g>
<!-- email&#45;&gt;ses -->
<g id="edge10" class="edge">
<title>email&#45;&gt;ses</title>
<path fill="none" stroke="#000000" d="M408.8446,-25.036C418.2368,-27.4749 429.0059,-30.2714 439.3375,-32.9542"/>
<polygon fill="#000000" stroke="#000000" points="438.491,-36.3504 449.0497,-35.4762 440.2504,-29.5751 438.491,-36.3504"/>
</g>
<!-- twilio&#45;&gt;status -->
<g id="edge13" class="edge">
<title>twilio&#45;&gt;status</title>
<path fill="none" stroke="#000000" stroke-dasharray="5,2" d="M512.6309,-100.5307C523.1089,-100.7115 535.1209,-100.9188 546.755,-101.1195"/>
<polygon fill="#000000" stroke="#000000" points="546.7747,-104.6203 556.8337,-101.2934 546.8956,-97.6213 546.7747,-104.6203"/>
</g>
<!-- patient -->
<g id="node11" class="node">
<title>patient</title>
<polygon fill="#ffcdd2" stroke="#000000" points="634.756,-36.5442 634.756,-51.4558 613.0964,-62 582.4649,-62 560.8053,-51.4558 560.8053,-36.5442 582.4649,-26 613.0964,-26 634.756,-36.5442"/>
<polygon fill="none" stroke="#000000" points="638.7548,-34.0423 638.7548,-53.9577 614.0177,-66 581.5436,-66 556.8065,-53.9577 556.8065,-34.0423 581.5436,-22 614.0177,-22 638.7548,-34.0423"/>
<text text-anchor="middle" x="597.7807" y="-39.8" font-family="Times,serif" font-size="14.00" fill="#000000">patient</text>
</g>
<!-- twilio&#45;&gt;patient -->
<g id="edge11" class="edge">
<title>twilio&#45;&gt;patient</title>
<path fill="none" stroke="#000000" d="M505.6095,-88.5324C520.4741,-81.3506 540.0178,-71.9081 557.2822,-63.5668"/>
<polygon fill="#000000" stroke="#000000" points="559.1134,-66.5692 566.5949,-59.0674 556.0681,-60.2663 559.1134,-66.5692"/>
</g>
<!-- ses&#45;&gt;status -->
<g id="edge14" class="edge">
<title>ses&#45;&gt;status</title>
<path fill="none" stroke="#000000" stroke-dasharray="5,2" d="M507.8861,-57.0163C526.0431,-66.1022 550.2834,-78.2322 569.0168,-87.6064"/>
<polygon fill="#000000" stroke="#000000" points="567.4752,-90.7487 577.9843,-92.0938 570.6077,-84.4887 567.4752,-90.7487"/>
</g>
<!-- ses&#45;&gt;patient -->
<g id="edge12" class="edge">
<title>ses&#45;&gt;patient</title>
<path fill="none" stroke="#000000" d="M519.1859,-44C527.8407,-44 537.2021,-44 546.3443,-44"/>
<polygon fill="#000000" stroke="#000000" points="546.5238,-47.5001 556.5238,-44 546.5237,-40.5001 546.5238,-47.5001"/>
</g>
</g>
</svg>
